<svg data-v-0dd9719b="" version="1.0" xmlns="http://www.w3.org/2000/svg" xmlns:xlink="http://www.w3.org/1999/xlink" width="100%" height="100%" viewBox="0 0 340.000000 250.000000" preserveAspectRatio="xMidYMid meet" color-interpolation-filters="sRGB" style="margin: auto;"> <rect data-v-0dd9719b="" x="0" y="0" width="100%" height="100%" fill="#fff" fill-opacity="1" class="background"></rect> <rect data-v-0dd9719b="" x="0" y="0" width="100%" height="100%" fill="url(#watermark)" fill-opacity="1" class="watermarklayer"></rect> <g data-v-0dd9719b="" fill="#333" class="icon-text-wrapper icon-svg-group iconsvg" transform="translate(46.400001525878906,83.91255187988281)"><g class="iconsvg-imagesvg" transform="translate(0,0)"><g><rect fill="#333" fill-opacity="0" stroke-width="2" x="0" y="0" width="60" height="82.17489556940355" class="image-rect"></rect> <svg x="0" y="0" width="60" height="82.17489556940355" filtersec="colorsb405430967" class="image-svg-svg primary" style="overflow: visible;"><svg xmlns="http://www.w3.org/2000/svg" viewBox="-0.0007348060607910156 -0.002746616955846548 87.17552947998047 119.39446258544922"><path d="M67.57 35.09c-4.86 0-9.73-.1-14.59 0-3.34.09-4.89-1.18-4.85-4.66.1-8.62.07-17.25 0-25.87.01-3.13 1.48-4.56 4.6-4.56q15.06.09 30.11 0c2.92 0 4.3 1.24 4.28 4.24-.07 8.94-.06 17.88 0 26.82 0 2.78-1.31 4-4 4H67.6z" fill="#ea5504"></path><path d="M19.55 0c4.87 0 9.75.08 14.62 0 3.32-.07 4.89 1.19 4.83 4.7q-.18 13 0 25.93c0 3.24-1.36 4.5-4.51 4.48Q19.63 35 4.77 35.1C1.36 35.12 0 33.53 0 30.2Q.1 17.48 0 4.74C0 1.29 1.64 0 4.93 0c4.88.09 9.75 0 14.62 0z" fill="#e60012"></path><path d="M19 77.43H4.4C1.48 77.45 0 76.1 0 73.16V46.78c0-3 1.52-4.23 4.37-4.23h30.61c2.7 0 4 1.19 4 4Q38.88 60 39 73.4c0 3.11-1.62 4.09-4.44 4.06H19.02z" fill="#fabe00"></path><path d="M67.69 42.52c4.71 0 9.42.12 14.13 0 3.68-.12 5.46 1.05 5.35 5.1-.23 8.32-.14 16.64 0 25 0 3.29-1.06 5-4.59 4.94-9.89-.09-19.78-.07-29.67 0-3.42 0-4.77-1.57-4.74-4.89.08-8.32.14-16.64 0-25-.08-4 1.77-5.24 5.44-5.13 4.66.09 9.39-.02 14.08-.02z" fill="#4d4398"></path><path d="M19.52 119.29c-4.88 0-9.75-.1-14.62 0-3.35.1-4.94-1.16-4.9-4.64.09-8.33.07-16.66 0-25 0-3.34 1.37-4.88 4.79-4.85q14.85.12 29.71 0c3.22 0 4.52 1.34 4.49 4.53-.09 8.48-.14 17 0 25.46.07 3.62-1.66 4.65-4.88 4.6-4.87-.09-9.74 0-14.61 0z" fill="#00a0da"></path></svg></svg> <!----></g></g> <g transform="translate(67,34.657448291778564)"><g data-gra="path-name" fill-rule="" class="tp-name iconsvg-namesvg"><g transform="scale(1)"><g><path d="M0 0L2.66-12.5 10.95-12.5 10.63-11.01 6.6-11.01 5.83-7.4 9.19-7.4 8.88-5.89 5.51-5.89 4.25 0 0 0ZM18.51-12.5L19.87 0 15.26 0 14.98-3.13 11.34-3.13 9.94 0 8.03 0 13.84-12.5 18.51-12.5ZM14.39-9.92L11.99-4.57 14.85-4.57 14.39-9.92ZM33.08-9.53L33.08-9.53Q33.08-8.37 32.43-7.38 31.78-6.4 30.28-5.89L30.28-5.89 32.57 0 28.18 0 26.44-5.45 26.23-5.45 25.06 0 20.81 0 23.47-12.5 28.65-12.5Q29.55-12.5 30.36-12.39 31.17-12.29 31.77-11.96 32.37-11.64 32.72-11.06 33.08-10.47 33.08-9.53ZM26.48-6.71L27.41-6.71Q27.92-6.71 28.28-7.06 28.65-7.4 28.87-7.9 29.1-8.39 29.2-8.95 29.3-9.51 29.3-9.92L29.3-9.92Q29.3-10.44 29.12-10.8 28.94-11.16 28.35-11.16L28.35-11.16 27.47-11.16 26.48-6.71ZM50.4-12.5L47.73 0 43.36 0 45.17-8.51 40.5 0 37.82 0 36.94-8.8 35.05 0 33.27 0 35.93-12.5 40.95-12.5 41.56-5.45 45.34-12.5 50.4-12.5ZM49.89 0L52.55-12.5 60.84-12.5 60.53-11.01 56.51-11.01 55.68-7.21 59.05-7.21 58.73-5.73 55.37-5.73 54.46-1.52 58.48-1.52 58.18 0 49.89 0ZM72.06-9.53L72.06-9.53Q72.06-8.37 71.41-7.38 70.76-6.4 69.27-5.89L69.27-5.89 71.55 0 67.16 0 65.43-5.45 65.21-5.45 64.05 0 59.8 0 62.45-12.5 67.63-12.5Q68.54-12.5 69.35-12.39 70.15-12.29 70.75-11.96 71.35-11.64 71.71-11.06 72.06-10.47 72.06-9.53ZM65.47-6.71L66.39-6.71Q66.9-6.71 67.27-7.06 67.63-7.4 67.86-7.9 68.09-8.39 68.18-8.95 68.28-9.51 68.28-9.92L68.28-9.92Q68.28-10.44 68.11-10.8 67.93-11.16 67.34-11.16L67.34-11.16 66.45-11.16 65.47-6.71ZM83.29-8.88L80.02-8.88Q80.08-9.18 80.08-9.69L80.08-9.69Q80.08-9.98 80.04-10.27 80-10.55 79.9-10.78 79.8-11.01 79.6-11.13 79.41-11.26 79.09-11.26L79.09-11.26Q78.74-11.26 78.44-11.1 78.15-10.95 77.92-10.7 77.69-10.46 77.57-10.13 77.44-9.81 77.44-9.45L77.44-9.45Q77.44-8.94 77.7-8.66 77.97-8.39 78.4-8.21 78.84-8.03 79.39-7.92 79.94-7.8 80.53-7.64L80.53-7.64Q81.02-7.5 81.51-7.29 82.01-7.07 82.39-6.7 82.77-6.34 83.01-5.76 83.25-5.18 83.25-4.31L83.25-4.31Q83.25-3.07 82.75-2.22 82.26-1.38 81.4-0.85 80.53-0.32 79.34-0.08 78.15 0.16 76.75 0.16L76.75 0.16Q75.33 0.16 74.44-0.03 73.54-0.22 73.03-0.43L73.03-0.43Q72.42-0.69 72.12-1.02L72.12-1.02 72.79-3.72 76.26-3.72Q76.24-3.54 76.22-3.24 76.2-2.93 76.2-2.76L76.2-2.76Q76.2-2.52 76.26-2.26 76.32-2.01 76.44-1.79 76.57-1.58 76.81-1.44 77.04-1.3 77.4-1.3L77.4-1.3Q77.79-1.3 78.1-1.48 78.4-1.65 78.61-1.92 78.82-2.19 78.92-2.51 79.03-2.84 79.03-3.15L79.03-3.15Q79.03-3.58 78.83-3.88 78.62-4.17 78.27-4.38 77.91-4.59 77.45-4.74 76.99-4.88 76.49-5.04L76.49-5.04Q76.02-5.18 75.5-5.38 74.98-5.57 74.54-5.93 74.11-6.28 73.83-6.82 73.54-7.36 73.54-8.21L73.54-8.21Q73.54-9.47 74.18-10.33 74.82-11.18 75.79-11.72 76.77-12.25 77.93-12.47 79.09-12.7 80.14-12.7L80.14-12.7Q81.51-12.7 82.51-12.37 83.5-12.05 84.01-11.62L84.01-11.62 83.29-8.88ZM101.2-12.5L98.51 0 94.25 0 95.43-5.57 93.01-5.57 91.83 0 87.58 0 90.24-12.5 94.51-12.5 93.35-7.07 95.75-7.07 96.91-12.5 101.2-12.5ZM108.78-12.7L108.78-12.7Q110.48-12.7 111.53-12.27 112.58-11.83 113.19-10.93L113.19-10.93Q113.59-10.32 113.8-9.55 114.02-8.78 114.02-7.78L114.02-7.78Q114.02-6.91 113.86-6.04 113.71-5.18 113.42-4.38 113.13-3.58 112.73-2.88 112.33-2.19 111.84-1.65L111.84-1.65Q110.91-0.65 109.7-0.25 108.49 0.16 106.72 0.16L106.72 0.16Q105 0.16 103.96-0.2 102.92-0.55 102.31-1.34L102.31-1.34Q101.87-1.89 101.63-2.74 101.38-3.58 101.38-4.86L101.38-4.86Q101.38-7.05 102.16-8.77 102.94-10.49 104.37-11.5L104.37-11.5Q105.24-12.11 106.3-12.4 107.37-12.7 108.78-12.7ZM106.56-1.22L106.56-1.22Q107.01-1.22 107.42-1.62 107.82-2.03 108.16-2.71 108.51-3.39 108.79-4.25 109.08-5.12 109.28-6.04 109.47-6.97 109.58-7.89 109.69-8.8 109.69-9.55L109.69-9.55Q109.69-10.57 109.48-10.96 109.28-11.34 108.88-11.34L108.88-11.34Q108.43-11.34 108.02-10.95 107.6-10.55 107.24-9.89 106.87-9.23 106.59-8.38 106.3-7.52 106.1-6.62 105.89-5.71 105.78-4.82 105.67-3.94 105.67-3.19L105.67-3.19Q105.67-2.07 105.92-1.64 106.16-1.22 106.56-1.22ZM114.18 0L116.84-12.5 121.11-12.5 118.79-1.65 122.78-1.65 122.45 0 114.18 0ZM129.32 0L123.67 0 126.33-12.5 131.62-12.5Q132.84-12.5 133.76-12.26 134.68-12.01 135.28-11.44 135.88-10.87 136.18-9.94 136.49-9.02 136.49-7.68L136.49-7.68Q136.49-6.24 136.12-4.86 135.76-3.49 134.91-2.4 134.06-1.32 132.7-0.66 131.33 0 129.32 0L129.32 0ZM128.22-1.38L129.06-1.38Q129.71-1.38 130.22-1.92 130.72-2.46 131.08-3.3 131.45-4.13 131.69-5.15 131.94-6.16 132.09-7.11 132.23-8.05 132.3-8.8 132.37-9.55 132.37-9.86L132.37-9.86Q132.37-10.47 132.13-10.82 131.88-11.16 131.27-11.16L131.27-11.16 130.32-11.16 128.22-1.38ZM143.63-12.5L140.96 0 136.7 0 139.36-12.5 143.63-12.5ZM156.31-12.5L153.62 0 149.01 0 146.82-9.04 144.89 0 143.12 0 145.78-12.5 150.49-12.5 152.55-3.35 154.5-12.5 156.31-12.5ZM162.5-4.39L162.79-5.71 167.89-5.71 166.75 0 164.43 0 164.05-1.26 163.97-1.26Q163.46-0.67 162.76-0.26 162.06 0.16 160.94 0.16L160.94 0.16Q160.07 0.16 159.28-0.13 158.48-0.41 157.86-1.03 157.24-1.65 156.87-2.66 156.49-3.66 156.49-5.08L156.49-5.08Q156.49-6.62 156.96-7.99 157.44-9.37 158.38-10.43 159.33-11.48 160.74-12.09 162.16-12.7 164.05-12.7L164.05-12.7Q165.51-12.7 166.59-12.36 167.67-12.03 168.64-11.62L168.64-11.62 167.89-7.8 164.56-7.8Q164.58-8.01 164.62-8.31 164.66-8.6 164.68-8.93 164.7-9.25 164.72-9.57 164.74-9.88 164.74-10.12L164.74-10.12Q164.74-10.28 164.72-10.48 164.7-10.69 164.62-10.89 164.54-11.09 164.39-11.21 164.23-11.34 163.93-11.34L163.93-11.34Q163.42-11.34 163-10.92 162.57-10.49 162.24-9.8 161.91-9.1 161.66-8.21 161.41-7.32 161.25-6.41 161.08-5.49 160.99-4.62 160.9-3.74 160.9-3.09L160.9-3.09Q160.9-2.89 160.92-2.6 160.94-2.3 161.05-2.02 161.16-1.73 161.36-1.53 161.57-1.32 161.96-1.32L161.96-1.32Q162.61-1.32 163.22-2.03 163.84-2.74 164.15-4.39L164.15-4.39 162.5-4.39ZM179.47-8.88L176.2-8.88Q176.26-9.18 176.26-9.69L176.26-9.69Q176.26-9.98 176.22-10.27 176.18-10.55 176.08-10.78 175.98-11.01 175.79-11.13 175.59-11.26 175.27-11.26L175.27-11.26Q174.92-11.26 174.62-11.1 174.33-10.95 174.1-10.7 173.88-10.46 173.75-10.13 173.62-9.81 173.62-9.45L173.62-9.45Q173.62-8.94 173.89-8.66 174.15-8.39 174.59-8.21 175.02-8.03 175.57-7.92 176.12-7.8 176.71-7.64L176.71-7.64Q177.2-7.5 177.7-7.29 178.19-7.07 178.57-6.7 178.96-6.34 179.19-5.76 179.43-5.18 179.43-4.31L179.43-4.31Q179.43-3.07 178.94-2.22 178.44-1.38 177.58-0.85 176.71-0.32 175.52-0.08 174.33 0.16 172.93 0.16L172.93 0.16Q171.51 0.16 170.62-0.03 169.72-0.22 169.21-0.43L169.21-0.43Q168.6-0.69 168.3-1.02L168.3-1.02 168.97-3.72 172.44-3.72Q172.42-3.54 172.4-3.24 172.38-2.93 172.38-2.76L172.38-2.76Q172.38-2.52 172.44-2.26 172.5-2.01 172.63-1.79 172.75-1.58 172.99-1.44 173.23-1.3 173.58-1.3L173.58-1.3Q173.98-1.3 174.28-1.48 174.59-1.65 174.79-1.92 175-2.19 175.11-2.51 175.22-2.84 175.22-3.15L175.22-3.15Q175.22-3.58 175.01-3.88 174.8-4.17 174.45-4.38 174.09-4.59 173.63-4.74 173.17-4.88 172.68-5.04L172.68-5.04Q172.2-5.18 171.68-5.38 171.16-5.57 170.73-5.93 170.29-6.28 170.01-6.82 169.72-7.36 169.72-8.21L169.72-8.21Q169.72-9.47 170.36-10.33 171-11.18 171.98-11.72 172.95-12.25 174.11-12.47 175.27-12.7 176.32-12.7L176.32-12.7Q177.7-12.7 178.69-12.37 179.68-12.05 180.2-11.62L180.2-11.62 179.47-8.88Z" transform="translate(0, 12.699999809265137)"></path></g> <!----> <!----> <!----> <!----> <!----> <!----> <!----></g></g> <!----></g></g><defs v-gra="od"></defs></svg>